<svg xmlns="http://www.w3.org/2000/svg" version="1.0" viewBox="0 0 1280 1225" fill="green"><path d="m507 9-51.5 8.8-45 13-45 12.9-29.3 14.7c-26.9 13.4-32 16.4-60.9 35.8-27.8 18.5-35.2 24-61.2 45.7l-29.6 24.7-31.7 40.1c-19.9 25.1-38.5 49.9-49.9 66.4-17.7 25.8-18.6 27.3-37.5 65.2-15.2 30.4-22.2 45.6-32.3 71l-12.9 32.3-8.6 46.4-8.5 46.5-1.6 40.7L0 614l5 52.1 5.1 52.2 13.8 46.6c11.2 37.5 17.1 55.2 30.3 90.7l16.4 44 21.8 35.1 21.7 35.2 28.5 33.5 28.5 33.5 31.5 28.3 31.6 28.3 40.1 25.2 40.2 25.2L357 1161c41.9 16.8 43.1 17.2 89.7 30.5l47.2 13.5 50.8 8.4 50.8 8.4 46.5 1.6 46.5 1.6 48.5-5 48.5-5.1 57-15c53.6-14.2 59.2-15.9 94-28.5l37-13.5 45.4-30.2 45.4-30.2 40.3-33.5 40.2-33.5 22-28.7c21.1-27.7 22.8-30.2 48.7-73.8l26.8-45.2 9.9-36.2 10-36.1 1.8-24.3 1.8-24.4-8-14.4c-4.5-7.9-8.3-14.2-8.6-14-.2.3-1.9 11.7-3.8 25.3-2.8 20.2-4.7 29.8-10.2 51.3l-6.8 26.5-17.9 27.7c-16.1 24.8-18.1 27.4-18.6 25-.4-1.5-1.3-10.2-1.9-19.5-.9-10.7-1.7-16.7-2.4-16.7-1.3 0-21.7 5.8-22.2 6.3-.2.2.1 5.1.6 10.8 1.5 15.3 5.9 66.4 5.7 66.5-.1.1-12.3 11.4-27 25.2-25.9 24.2-27.4 25.9-43.5 46.8l-16.6 21.7-31.1 20.6c-17 11.4-43.8 28.5-59.5 38.1-15.7 9.5-39.3 24.3-52.5 32.8l-24 15.5-26.2 6.7c-14.5 3.7-26.3 6.6-26.3 6.4 0-.1 2.7-7.9 6-17.2 3.3-9.4 6-17.6 6-18.2 0-.7-1-.9-2.7-.6-1.6.3-12.7 1.9-24.8 3.6-12.1 1.6-28.7 3.9-37 5-8.2 1.1-18.1 2.5-22 3-3.8.5-13.7 1.9-22 3-17 2.4-26.9 3.7-37 4.9-3.8.5-30.6 3.1-59.5 5.6l-52.5 4.8-34.5 13.9-34.5 14-8.5-.5c-7.9-.4-11.1-1.4-47-14.4-21.2-7.8-48.4-17.2-60.5-21.1-12.1-3.9-34.7-11.1-50.3-16.2l-28.4-9.1-33.6-21.9-33.7-21.9-28.5-25.2c-15.7-13.8-46.6-40.2-68.7-58.6l-40.2-33.6-25.4-40.6c-24.1-38.6-26.1-42.1-40.5-72.6-14.8-31.4-15.3-32.7-26.6-68.3l-11.5-36.3-4.6-29.2c-2.6-16.1-4.7-30-4.8-31.1-.2-1.5 2-2.6 12.8-6.3 7.2-2.4 18.6-6 25.5-7.9 6.9-2 12.8-3.9 13.2-4.3 1.3-1.2 3.7-14.8 7.3-41.1 3.3-24.5 3.9-27.5 10.1-47.8l6.6-21.6-1.6-10c-.9-5.5-1.8-10.1-1.9-10.2-.1-.1-12.9-6.5-28.4-14.3-15.6-7.8-28.3-14.7-28.3-15.4 0-.6.9-6.2 2.1-12.2 1.9-10 7.8-27.3 30-88.5 1.1-3 13.3-27.5 27.2-54.3l25.2-48.8 23.8-30.2c13.1-16.6 35.8-44.6 50.5-62.3l26.7-32 35.1-28.5 35.2-28.4 41.3-18.3C380 76 401.9 67.2 429 57.3l37.5-13.6 54-8.8c45.1-7.3 68.3-11.5 132-23.8l4-.8-3.5-.6c-4.1-.8-92-9.8-93.5-9.6-.5 0-24.2 4.1-52.5 8.9zM60 532.4l12.5 3.3.3 15.2.3 15.2-5.1 16.7c-2.7 9.2-6.5 24.3-8.4 33.6l-3.4 16.8-8.2 8.3c-4.6 4.6-9.1 8.6-10.1 8.8-2.2.6-2.6-2.4-3.5-23.3-.6-14.7-.4-17.2 4-49 6.3-45.5 6.9-49 8.3-49 .4 0 6.4 1.5 13.3 3.4zM728 5.3c.8.8 9 7.5 18.1 15l16.5 13.5 45.5 18.5c25 10.2 63.5 25.3 85.7 33.6l40.3 15.1 37.2 23.7 37.1 23.6 45 41.7c24.8 23 54.4 51.2 65.8 62.6l20.6 20.9 16.5 28c12 20.5 20.5 36.6 31.5 60 14.6 30.8 15.6 33.2 25.1 63.6l10 31.5 3.4 49.5 3.4 49.4-1.8 31-1.7 31 8.5 30.4c6.4 23.2 9.5 36.8 13.2 57.8 2.7 15.1 5 27.6 5.2 27.8.2.2 4.8-20.4 10.3-45.7l9.8-46.1 3.4-43.6 3.4-43.6-5-38.9-5.1-38.8-10-36.7-10-36.6-15-33.5c-13.7-30.6-17.2-37.3-40.1-77l-25-43.5-48.7-48.8-48.6-48.8-35.5-25.4-35.6-25.4L962 83c-51.6-23.6-110.1-46-144.1-54.9-60.5-16-87.6-23.2-89.4-23.7-1.8-.5-1.8-.4-.5.9z"/><path d="M590 59.2c-9.6 1.6-35.3 5.3-57 8.2l-39.5 5.1-1.1 5.8c-.7 3.2-1.5 7.7-1.8 10.1l-.7 4.3 30.8-6.8c29.5-6.6 31.2-6.9 44.2-6.9 13.8-.1 55.1 3 55.1 4 0 .3-3.6 4.9-8 10.2l-8 9.6-11.7-3.4c-10-2.8-15.2-3.5-33.6-5L537 92.7l-13 4.8c-7.2 2.6-12.8 5-12.6 5.2.3.3 9.1 2.7 19.7 5.3 12.6 3.2 27.5 6 42.7 8.2l23.4 3.3 11.5 9.8c6.3 5.5 11.8 9.5 12.2 9.1 1-1.2 23.4-65.5 22.9-65.9-1.6-1.5-33.2-16.5-34.5-16.4-1 0-9.7 1.4-19.3 3.1zM792 122.5c0 .3 6.7 8 14.8 17 11.7 12.9 18.3 19.2 31.1 29.4 8.9 7.1 16.1 13.3 15.9 13.8-.2.4-11.3 8.9-24.8 18.8-24.2 17.8-24.6 18.2-42.7 37.8-10 10.9-28.1 32-40.2 46.9l-22 27.1 2.6 3.1c1.4 1.7 5.9 7 10 11.8l7.4 8.7 15.2-11.8c8.4-6.5 26.7-19.3 40.7-28.3 14-9 32-21 40-26.7 16.7-11.7 15-12.2 17 4.3l1.2 9.1-4.7 12.4c-2.5 6.9-4.9 13-5.3 13.7-.4.6-11 12.3-23.7 25.8l-23 24.6-12 20.5-12 20.4-20.2 18.4-20.1 18.5-20.1 6.7-20 6.6-5 15.2c-2.8 8.4-6.6 21.9-8.5 30.2-2.8 12.5-3.5 14.5-4.1 12-.4-1.7-2.7-10.2-5.1-18.9-4.3-15.5-4.4-16.4-4.4-30.7v-14.7l-13.4-3.3-13.4-3.3-20.9 6.3-20.8 6.4-26.2 15.5c-23.7 14.1-26 15.8-25.3 17.7.6 1.6-1.2 5.3-8.6 17.5l-9.3 15.5v38l13.3 11.6 13.4 11.6 16.7 6.7 16.6 6.7 3.2-2.7c20.5-17.2 20.4-17.1 25.3-27.2 2.6-5.3 4.9-9.9 5-10.1.2-.2 6.2 3.4 13.5 8 15.1 9.5 15.1 7.7-.2 16.4l-9.7 5.5-1.1 8.2c-.7 4.6-1.5 9.9-1.8 11.9-.4 3.2.1 4.3 6.4 11.9 5.9 7.3 8.2 9.2 17 14.3l10.1 5.8 2.1 8.7c1.2 4.8 2.6 10.4 3.2 12.4l1 3.8 34.7-17.4c33.5-16.7 35.7-17.7 59.9-25.5l25-8.2 25.9.1 25.9.1 4.8-11.2c2.6-6.1 4.6-11.4 4.4-11.6-.2-.2-17.5.4-38.3 1.3l-37.9 1.7-17.5 7c-9.6 3.8-29.4 11.6-43.9 17.3l-26.3 10.3-6.7-5.4c-6.4-5.2-6.8-5.7-8.3-12.1l-1.6-6.7 6.7-8.3c6.2-7.8 6.7-8.8 8.4-16.8l1.7-8.5-6.6-13.3c-6.4-12.9-6.8-13.4-13.3-18-3.6-2.5-9-6.3-11.9-8.4l-5.2-3.7-10.3 1.2c-18 2.1-15.7.8-26.8 15.6-9.4 12.5-10.5 13.6-18.5 18.4l-8.5 5.1-12.2-6.1c-6.7-3.4-12.7-6.5-13.3-7-.8-.7-.6-4.1.6-12.4 1.7-11.1 2.1-12.1 8.4-23.2 6.3-11 6.5-11.7 5-13.5-1-1-1.5-2-1.3-2.2 1.1-1 21.1-13.6 23.6-14.9 1.5-.8 10.6-4.3 20.1-7.7l17.2-6.3 9.9 6.6c10.9 7.3 10.2 6.1 12.1 20.7.9 6.2 2.5 11.8 6.2 20.5 4.4 10.7 5.7 12.7 11.6 18.7 3.7 3.8 7.2 6.8 8 6.8.7 0 6.2-1.4 12-3.1l10.8-3.1 5-18.5 5-18.4-1.7-14.7c-.9-8.1-1.5-14.9-1.3-15.1.2-.3 5.6-1.2 11.9-2.1l11.4-1.6 14.9-9.9c14.6-9.8 15-10.1 20.8-18.9 24.8-37.8 45.4-65.9 64.8-88.6l20.4-23.7 13.4-3.3 13.3-3.3 11.8-8.5c10.9-7.7 11.8-8.6 11.3-11.1-.8-3.4-9.6-52.9-9.6-53.5 0-.6-17.4-12.4-19.5-13.2-.8-.3-22.5 11.7-49.2 27.1-26.3 15.3-49.4 28.6-51.3 29.7-3.1 1.7-2.8 1.3 1.9-3.2 64.3-61.5 64.8-61.9 91.8-82l26.1-19.5 1.2-8c.6-4.4 1.4-9.7 1.7-11.7l.5-3.6-6.8-2c-3.8-1.1-12.2-3.5-18.6-5.2-11.2-3.1-12.8-3.9-33.5-16.6L814.5 122h-11.2c-6.2 0-11.3.2-11.3.5zM438.4 132.8c-15.2 6-28.6 12.2-43.2 20.1L374 164.2V191.5l13.8-13.6 13.7-13.6 16.2-3.1c14.6-2.8 18.3-4 36.4-11.5 16.9-7.1 21.4-9.4 28.4-14.8 4.6-3.5 8.4-6.6 8.4-6.9.1-.5-6.9-1.4-26.4-3.5-3.3-.4-8 1.2-26.1 8.3zM694.1 158l-11.4 6.7-6.8 13.4c-6.4 12.8-7.5 14.4-21.7 30.1-10.4 11.5-14.9 17.3-14.6 18.5.2 1 1.7 8.5 3.3 16.8l3 15-1.6 16.7-1.7 16.7-4-3c-9.9-7.1-9.3-6.1-12.9-22.3l-3.3-14.8-13.4-8.4c-11.1-7-13.6-8.2-14.9-7.1-.9.6-5.4 4.4-10.1 8.3l-8.5 7.1-10-4.9c-5.5-2.8-10.1-5.1-10.2-5.2-.1-.1-.5-3.5-.9-7.7l-.6-7.5 9.6-27.5c8.6-24.4 9.5-27.5 8-28.6-1.3-.9-1.3-1.5-.4-3.3.6-1.2 1-2.3.8-2.5-.2-.1-3.9-2.4-8.2-5.1l-7.9-4.8-4.5 1.7c-4.3 1.5-4.8 1.5-8.1-.3-3.5-1.7-3.9-1.7-20.6 1.1-9.3 1.6-35.6 5.4-58.4 8.3-22.7 3-41.5 5.7-41.7 5.9-.6.6-3.6 18.8-3.2 19.2.2.3 13.7-2.5 29.9-6.1l29.4-6.6 26.7.4c27.7.5 29.8.8 29.8 4.8 0 1.4-5.5 15.7-6.4 16.7-.2.2-4-.9-8.7-2.3-6.4-1.9-13.8-3-30.9-4.4l-22.5-2-13.2 4.8c-7.3 2.6-13.3 4.9-13.3 5.2 0 1.5 44.4 11.1 62.5 13.6 11 1.5 20.3 3 20.6 3.3.3.3.2 4.3-.4 8.8-.9 7.9-.8 8.8 2.3 20l3.4 11.8 8 8.3 8.1 8.3 15.5 1.7c15.7 1.8 17.6 1.7 35.7-1.2l3.3-.5 2.1 7.2c1.1 4 3.4 11.5 5 16.8l3 9.7 15 6.7 15 6.7 11.7-6.7 11.8-6.6 5.1-15.7 5.2-15.7 1.6-24.5c.9-13.4 1.8-24.7 2.1-25.1.2-.4 7.8-9.6 16.9-20.5 9.9-11.9 16.3-20.4 16.1-21.4-.3-.8-1-8.7-1.7-17.5-.6-8.8-1.5-16.3-1.8-16.6-.3-.4-5.7 2.4-12 6.1zM390 200.3c-7.4 6.6-30.4 26.6-51 44.4-37.4 32.3-37.5 32.5-53.5 51.8l-16 19.5-4.8 14.8-4.9 14.9 5 10 5.1 10-1.9 14.4c-1.3 10-3.9 21.8-8.4 38.7l-6.5 24.2 6.7 25.3 6.8 25.3 11.4 13.1c6.3 7.2 11.6 12.9 11.7 12.8.2-.1-.5-14.4-1.4-31.7l-1.6-31.6 3.2-19.7c2.5-14.7 4.5-23.2 8.2-34.3l4.9-14.6v-32.4l-6.5-8.1-6.6-8.1 18.7-28.7 18.8-28.8 19.7-14.7 19.8-14.7 19.8-23.1c10.9-12.7 20-23.6 20.2-24.2.4-1.3-2-15-2.8-15.9-.3-.4-6.7 4.8-14.1 11.4zM346.2 500.9c-9.5 2.7-17.5 5-17.7 5.3-.3.3-3.3 8.1-6.7 17.4-3.3 9.3-6.4 17.3-6.8 17.7-.4.4-2.8-2-5.4-5.3-5.3-6.7-5.3-6.7-17.1-4.7l-7 1.2-.3 7.1-.3 7 15.9 21.1c14.5 19.3 36.4 45.3 38 45.3.4 0 5.4-1.4 11.2-3 5.8-1.7 10.6-3 10.7-3 1.4 0-3.1-16.2-10.8-39.1-4.2-12.6-7.9-29.8-7.9-36.8 0-1.4 2-2.7 8-5.1 4.5-1.8 8.2-3.1 8.4-2.9.2.2 3.4 6.4 7.1 13.8 3.6 7.4 11.1 20 16.5 28.1 9.7 14.5 10 14.8 17.8 19.4 4.3 2.5 8.2 4.6 8.5 4.6.4 0 .7-3.4.7-7.6 0-5.3-1-11.6-3.5-21.5-3-11.9-4.8-16.6-11.9-30.7l-8.4-16.7-10-8.3c-5.5-4.5-10.4-8.2-10.9-8.1-.4 0-8.6 2.2-18.1 4.8zM1138 557c-31.1 14.2-57.1 26.2-57.8 26.7-.9.6-.5 6.4 2.2 27.5 3.1 25 3.3 27.2 2 34-.7 4-4.5 25.2-8.4 47-5.8 32.7-9.5 51.8-13.4 68-.3 1.2 3.7 4.5 14.3 11.9 8 5.6 26.9 19.2 41.9 30.2l27.3 19.9 8.2-1.2c13-2 12.6-1.1 4.9-12.6-3.7-5.6-12.5-16.7-19.7-24.8l-13-14.7-14.5-8c-8-4.5-14.9-8.4-15.3-8.9-1.7-1.5 9.1-67 16.3-99.2 8.2-37 12.6-54.9 13.7-55.9.4-.4 9.6-6.5 20.3-13.6 18.5-12.2 19.9-13 28-14.7 4.7-1 11.5-2.5 15.3-3.3l6.7-1.5v-16.4c0-12.5-.3-16.4-1.2-16.3-.7 0-26.7 11.6-57.8 25.9zM442.7 605.8 431 617.5l24.2 8.9c13.4 4.9 44.3 16.3 68.8 25.2 24.5 9 44.4 16.7 44.3 17.1-.1.4-5.4 12.6-11.8 27.1-15.5 35.4-37.2 95-41.4 114-1.7 7.8-3.1 14.7-3.1 15.2s5.2 5.4 11.5 10.8c10.1 8.7 14.7 11.7 39.2 25.5 15.3 8.5 34.9 19 43.6 23.3l15.7 7.9v89.9l8.2 19.8c4.6 10.9 8.5 19.8 8.8 19.8.3 0 2-7.3 3.7-16.3l3.2-16.2-1.6-25-1.7-25 5-15 5-15-3.3-16.4c-1.8-9.1-3.6-16.8-4-17.2-.5-.3-8.9-4.3-18.8-8.8-16.8-7.6-19-8.9-33.2-20-11.7-9.1-19.3-14.1-33.2-21.6-10-5.4-18.1-10.1-18.1-10.4 0-3.1 20.3-83.7 21.3-85 15.1-17.7 31.7-38.3 31.7-39.2 0-.7-2.1-8.4-4.7-17.1l-4.7-16-25-15-25-15-27.8-10.4c-22.8-8.5-34.2-13.5-52.8-23.1-.3-.2-5.8 5-12.3 11.5zM920.1 605.2c-.7 6.2-1.4 13.8-1.8 16.9l-.5 5.6 11.1 4.8c6.2 2.6 16.7 6.4 23.4 8.4l12.2 3.7 1.2 13.4c2.2 23.7 2 38.9-.5 54.2-1.2 7.6-3.1 20-4.2 27.5-1.2 7.6-3 19.6-4.1 26.7-1.1 7.1-3.5 28.6-5.5 47.8l-3.5 34.9-11.6 13.4-11.6 13.3-20.2 8.4-20.1 8.4-17.5-3.2c-9.5-1.8-17.9-3.3-18.5-3.3-.6-.1-1.6 3.2-2.3 7.1-.7 4-1.4 8.5-1.7 10l-.6 2.8H925l20-10c19.5-9.8 19.9-10 20.9-13.7 8.2-31.3 9.1-36.1 12.6-70.5 1.9-18.9 4.1-38.4 5-43.3.9-5 2.7-15.3 4-23 1.4-7.7 3.4-19.2 4.5-25.5 2.9-16 3.7-24.9 5-53 .6-13.5 1.3-25.4 1.5-26.6.3-1.5-2.1-5.8-8.2-14.3l-8.6-12.1h-43.6l-7.7-9.3c-4.3-5-8.1-9.6-8.4-10-.4-.5-1.3 4.3-1.9 10.5zM781.3 928.8c-6.8 8.6-16.5 20.6-21.7 26.7-8.8 10.1-10 12.2-16.2 26l-6.7 15-1.9 17.2c-1.8 17.3-1.8 17.3-6.7 27l-4.9 9.8-12.8 9.5c-7 5.2-17.5 13.4-23.3 18.2-5.8 4.9-10.8 8.5-11.1 8-.4-.4-3.5-9.4-7-20-6.2-18.6-6.4-19.2-8.4-17.9-1.2.7-4.9 3-8.3 5.1-3.8 2.2-6.3 4.4-6.3 5.4 0 .9.7 10.9 1.5 22.2.8 11.3 1.5 21.8 1.5 23.5 0 2.7.9 3.5 7.7 7.5 4.3 2.5 8.3 4.6 8.9 4.8.7.2 9.4-5.7 19.5-13 10.1-7.4 28.9-20.1 41.6-28.3l23.3-14.9 10.1-15.2 10-15.2-1.6-15-1.7-15.1 8.2-14.8c6.1-11.1 11.6-19 21.6-31.5 7.4-9.2 13.4-17 13.4-17.4 0-.5-16-23.4-16.4-23.4 0 0-5.6 7.1-12.3 15.8z"/></svg>
