<svg xmlns="http://www.w3.org/2000/svg" version="1.0" viewBox="0 0 1280 648" fill="green"><path d="M477 .6c-1.9.2-7.8 1.1-13 1.9-5.2.7-12.2 1.6-15.5 1.9-3.4.3-8.7 1.7-12 3.2-6.1 2.7-15.6 5.6-16.3 5-.1-.2 1-.8 2.7-1.4 1.6-.6 3.4-2 4-3.1 2.7-5-8.8-7.3-23.7-4.7-5.4.9-14.4 1.6-21.5 1.5-11 0-13.1.2-21.6 3-7 2.2-9.8 2.8-10.8 2-1.6-1.4-8.5-.7-13.8 1.4-3.6 1.4-3.9 1.8-4.2 5.6-.3 4.6.5 5.2 8.6 7.7 2.6.7 5.5 2.2 6.4 3.1 1.5 1.7 1.2 1.8-4.5 1.7-3.3 0-6.3-.5-6.6-1-1.3-1.7-9.1-5.4-11.5-5.4-5.5 0-8.8 7.8-5.3 12.6 1.3 1.7 1.2 2.2-1.2 4.7-2.1 2.2-2.6 3.7-2.7 8 0 4.6.2 5.2 2.3 5.5 1.2.2 2.2.7 2.2 1.1 0 1.5-3.5 3.9-6.5 4.6-1.6.4-3.8.9-4.7 1.2-1.5.3-1.8-.2-1.8-3.1 0-2.2-.7-4.3-2-5.6-1.9-1.9-1.9-1.9.6-4.9 1.4-1.7 4.8-4.3 7.5-5.7 6.5-3.6 6.8-6.4.6-6.4-3.4 0-5.4.8-9.3 3.6-2.7 1.9-6.4 4.1-8.1 4.9-4.6 1.9-8.3 6-8.3 8.9 0 2.3-.1 2.4-2.7 1.1-2.7-1.3-5.5-1.9-8-1.6-.7 0-1.3 1.4-1.3 3 0 3.6-2.2 5.5-5.5 4.7L267 59l2.2-3c1.3-1.8 2.2-4.6 2.3-6.9.1-2.9.8-4.4 3-6.3 4-3.5 2.6-4.8-5-4.8-4.8 0-6.6.4-7.3 1.6-.8 1.4-1.2 1.3-4.3-.5-3.8-2.3-6.9-2.7-8.6-1-.8.8-2.1.8-4.6 0-5.4-1.8-22.5-1.6-26.9.2-4.7 2-7.1 5.7-6.6 10l.4 3.4-11.6-.1c-6.3 0-13.6.4-16.1.8-3.7.7-5.3.4-8.7-1.3-5.3-2.7-5.5-2.7-12.7.9-3.3 1.6-6.5 3-7.1 3-.5 0-2.8-1.3-5-2.9-5.1-3.8-10.2-5.1-19.4-5.1-5.2 0-8.8.6-11.8 2-3.9 1.8-4.5 1.8-8.5.4-8.2-3-17.3-.1-30.2 9.6-7.3 5.4-10.9 7-15.6 7-2.7 0-4.6.6-5.4 1.6-1.1 1.5-1.9 1.5-7.7.4-7.5-1.5-11-.9-14.4 2.5-2.9 3-3 5.4-.3 8.9 2.2 2.8 4.8 3.3 8.1 1.5 3-1.6 3.4-.2.8 2.6-2 2.2-3.2 2.5-8.9 2.5-8 0-12.5 2.4-14.7 7.6-1.3 3-1.3 3.9-.1 6.3 1.3 2.6 1.2 2.9-3 6.5-2.4 2.1-7.1 5.2-10.4 6.9-6.2 3.2-9.6 6.7-8.4 8.7 1.3 2 5.3.9 10.6-3 3-2.2 7.9-5.2 10.9-6.6 3-1.4 6.7-3.7 8.2-5.2l2.8-2.6 3.9 2.2c2.1 1.2 5 2.2 6.3 2.2 1.4 0 6.4-2.6 11.3-5.7 7.4-4.8 9.6-5.7 14.4-6.1 3.1-.2 10.9-1.7 17.5-3.3 12.9-3.2 15.7-3.4 18.7-1.9 2.7 1.5 2.4 4.7-1.1 10.5-5.1 8.5-4 15.7 2.8 18.2 2.1.8 2.1 1 .7 2.8-1.4 1.9-1.6 1.9-2.6.2-.5-.9-2.1-1.7-3.4-1.7-3.4 0-5.7 3.9-5.3 8.7.3 4.1.9 4.3 8.5 2.7 2.6-.5 3.3-.3 3.3.9 0 .8-1.1 1.8-2.5 2.1-3.4.9-3.3 4.7.1 9.1 2.4 3.2 2.5 3.7 1.5 8.5-1.3 6.2-4.1 11.9-9.2 18.7-5.6 7.5-8.9 14.1-8.9 17.8 0 1.8 1.3 6.1 2.9 9.6 3.2 6.8 5.7 18.9 7.5 36 1 9.5 1.5 11.2 4.9 16.7 2.4 3.9 4.1 8.2 4.7 11.8 1.1 6.4 3 9.9 6 10.9 3.2 1 5-1.2 5-5.9 0-3-1.3-6.7-4.5-13-3-6-4.5-10.1-4.5-12.7 0-3.1-.6-4.3-3-6.1-2.4-1.7-3-2.9-3-6 0-6.9 2.9-4.4 6.1 5.3 2.7 8.1 7.6 17.8 13.9 27.4 5.8 8.9 7 12.6 7 21.3 0 5.9.3 6.7 3.3 9.7 2.3 2.3 5.2 3.9 9.3 4.9 3.2.9 9.5 2.7 13.9 4 4.4 1.4 9.5 2.7 11.3 3.1 2.8.6 3.7 1.5 5.6 5.9 2.6 5.8 3 6.1 10.2 7.2 5.2.7 5.4.9 18.4 9.4 4.7 3.1 10.8 6.7 13.5 8 2.8 1.3 6.2 3.4 7.8 4.6 2.5 2.1 3 2.2 7 1 2.3-.8 5-1.7 5.9-2.1 2.3-.9 2.2-.4-.1 3.7-2.7 4.7-3.3 8.4-2.4 15.3 1.2 8.7.8 9.8-5.4 15.7-8.1 7.9-9.7 11.4-9 21.3.6 10.3 3.2 17 9.5 24.2 2.7 3.2 7.1 10.1 9.8 15.3 6.5 12.7 10.1 16.5 20 21.1 8.8 4.1 13 8.1 13.9 13.2.2 1.8 1.2 7.2 2 12.2 1.6 9 3.6 34.3 5.5 67.9.6 9.8 1.3 18.3 1.6 18.8.3.5 1 7 1.4 14.3.8 11.7 1.2 14 3.4 17.8 1.5 2.4 3.1 7.1 3.7 10.3 1.3 7.3 4.3 12.2 8.3 13.9 1.7.7 4.1 2.5 5.3 3.8 1.2 1.4 4.9 3.5 8.3 4.8 4.3 1.6 6.9 3.2 8.8 5.7 2.9 3.9 9.1 7.1 13.5 7.2 5 0 10.7-4.1 10.7-7.9 0-.5-3.2-2.6-7-4.7-10.6-5.5-16.1-14.4-14.6-23.5.9-5.7-.7-8.7-5.9-10.9-2.5-1.1-4.5-2.3-4.5-2.8s1.1-1.9 2.5-3.2c1.3-1.2 2.9-3.8 3.6-5.7.9-3 .8-4.1-1.6-8.8-1.4-3-2.4-5.9-2.1-6.4.3-.5 2.8-1.4 5.6-2.1 5.3-1.3 9-4.7 9-8.2 0-1.8.5-1.9 6.9-1.2 9.5.9 13.1-1 13.1-7.3 0-4.7-.9-6.2-5.1-8.4-4.8-2.4-5-3.3-.6-2.5 4.3.8 9.2-.9 11.2-4 .9-1.4 2.5-6.6 3.6-11.5 1.1-5 3.3-11.8 5-15.1 1.7-3.3 3.3-8.2 3.6-10.8.6-5.5 1.7-6.2 11.1-8 6.3-1.1 7.8-1.9 11.4-5.7 4.9-5.2 6.1-9.5 6-23.3-.1-14.2 1.1-18.2 8.6-28.2 11.5-15.1 12.3-28.4 2.5-38.9-5.7-6.1-11-8.6-19.8-9.4-10.5-.9-11-1.1-17.4-6.8-3.9-3.5-7.9-6-11.6-7.3-7.2-2.4-10.1-5.7-11-12.6-2-14.2-12.3-23.8-25.7-23.8-5.8 0-8.7-2.3-14.4-11.2-3.6-5.5-5.4-7.4-8.9-8.9l-4.5-2-7.3 2.6c-9.1 3.1-10.2 3.1-15.2 0-5-3-10-3.3-11.7-.5-.7 1.1-2.2 2-3.3 2-3.4 0-8 3.5-11.1 8.4l-2.9 4.6h-9.2c-5.1 0-10.3-.5-11.7-1.2-1.4-.6-3.5-3.1-4.7-5.4-1.8-3.9-1.9-5-1-9.4.6-2.8 1.1-7.2 1.1-9.9 0-4.4-.2-4.8-3.5-6.4-4.3-2-7.1-2.1-10.5-.3-2.8 1.6-6 .5-6-2 0-.8 1.4-4.1 3-7.4 3.1-6.2 3.9-12.7 1.8-14.8-2.6-2.6-5.5-1.2-11.6 5.3l-6 6.5-6.6.2c-3.6 0-7.2.1-7.8.2-2.2.2-3.7-4.6-4.9-16-1.5-14.2-1-17 4.8-23.4 6.5-7.2 8.9-8.2 22-8.9l11.2-.6 4-3.9 3.9-3.8 10.4 3.6 10.3 3.5v11c0 7.1.4 11.4 1.2 12.2 1.6 1.6 6 .3 7.4-2.2 1.4-2.7 1.3-11.9-.2-20.5-2-11.4-.7-14 11.3-21.8 3.5-2.3 8.9-7.3 12.5-11.6 4.8-5.8 7.7-8.2 12.8-10.7 4.5-2.3 7.3-4.5 9.1-7.3 1.5-2.2 4.8-5.2 7.8-6.8 2.8-1.6 9.5-7.1 14.9-12.1s10.2-9.1 10.7-9.1.5 1.1-.2 2.4c-1.4 3.2-.4 5.6 2.3 5.6 1.1 0 5.5-1.7 9.7-3.9 4.2-2.1 10-4.9 12.7-6.2 3.4-1.6 5.1-3.1 5.3-4.5.3-1.9-.3-2.2-5.7-2.8-5.1-.6-6.1-1-6.1-2.6 0-1.4.7-2 2.3-2 2.4 0 5.7-2.8 5.7-4.8 0-.6-1-1.8-2.2-2.6-1.6-1.1-1.8-1.6-.8-1.7.8 0 5.7-.4 10.8-.7 8.9-.7 9.2-.6 7 1-6.5 4.9-7.7 6-8.7 8.8-.9 2.6-.7 3.4 1 5.1 2.1 2.1 4.9 2.2 12.5.3 1.6-.4 2.3 0 2.7 1.5.6 2.6 5.2 2.9 8.5.5 3-2.1 2.8-5.5-1-12.6-3-5.7-3.1-6.1-2-11.8 1.4-7.5.3-11.2-4.5-16.2-3.1-3.2-3.7-4.5-4.1-9.5-.7-9.3-5.7-12.9-11.5-8.2-1.5 1.1-4.3 2.3-6.2 2.6-3.4.6-3.6.5-3-1.9.5-2.1-.3-3.5-4.9-8.2-3.1-3.1-5.6-6.1-5.6-6.5 0-.5 1.7-1.1 3.8-1.4 3.4-.4 4.2 0 8.7 4.4 5.9 5.6 8.9 6.6 13.9 4.5 4.2-1.8 4.6-3.7 1.1-6.4-3.1-2.5-3.2-3.4-.2-2.7 3.2.9 7.5-1 8.8-3.8.8-1.9.7-3.1-.5-5.5l-1.5-3 4.7 1.5c3.8 1.2 5.5 1.3 8.9.4 4.6-1.3 10.3-5.5 10.3-7.7s-5.5-4.4-11-4.4c-2.7 0-5-.2-5-.4 0-.3.4-1.6 1-3 .8-2.3.4-2.8-5.3-7-3.5-2.4-6.9-5.1-7.6-6-.7-.9-3.1-2.1-5.2-2.6-4.7-1.3-5.4-4-1-4 2.2 0 4.1-1.2 7.6-4.9 5.8-6.1 10.2-8.3 24.9-12.1 13.4-3.5 12.9-3.5 11.7-1.2-.7 1.3-.6 2.3.1 3 .9.9-.9 1.2-7.4 1.2-4.8 0-9.8.4-11.2 1-3.3 1.2-5 4.4-3.6 6.9 2.2 4.2 10.1 4.8 28.7 2.5 5.8-.7 6.5-.1 7.7 7 .6 3.2.4 4.1-1.3 5.3-2.5 1.7-2.7 5-.6 7.3.8.9 1.8 3 2.1 4.7.5 2.8.2 3.4-3.9 6.2-5.4 3.7-6.3 6.4-4.2 13.3.8 2.8 1.5 7.3 1.5 9.9 0 8.8 7.1 13.7 16.1 11 5.2-1.6 8.9-5 11.8-10.8 4.2-8.2 5.6-9.3 12.2-9.3s12.8-2.2 32.4-11.5c14.2-6.8 21.6-9.5 26-9.5 4.5 0 7.7-2.9 11.6-10.6 3-5.8 4-6.8 8.4-8.8 4.5-2.1 5.1-2.7 6.2-6.9 1.7-6.1 6.3-10.4 14.9-13.7 4.2-1.5 6.9-3.2 6.9-4 0-.9-2.5-2.5-6-3.9-5.5-2.1-6.3-2.2-11.2-1-5 1.2-5.5 1.1-7.7-1-1.4-1.3-4.6-2.5-8.2-3.2-6.3-1-41.5-2-47.4-1.3zM229.8 52.2c3 3 3.9 3.3 8.8 3.2 7.1-.2 7.1 1.7.1 3.9-6.7 2.1-10 2.1-14.3.1-4.8-2.3-5.8-3.8-4.3-6.6 2.5-4.8 5.1-5 9.7-.6zm110.6 5.7c1.6 1.7 1.6 1.9-.4 2.4-3.5.9-2 4 2.5 5.3l3.9 1.1-3.2.6c-2 .4-3.6 1.5-4.3 2.9-.9 2-1.6 2.3-5.5 1.9-5-.3-8.4 1.7-8.4 5.1 0 1-.8 2.1-1.7 2.4-5.4 1.8-7 2.8-9 5.9-1.2 1.8-2.5 4.5-2.9 5.9-.3 1.5-2 3.6-3.6 4.8-2.9 2-3 2.4-2.4 7.3.7 6.4-.7 8.4-7.7 10.9-5 1.9-7.7 5.3-7.7 9.8 0 1.3-.7 3.3-1.5 4.4-1.4 2.1-7.2 5.4-9.3 5.4-1.4 0 .1-5 3.4-11.3 2.5-4.8 2.5-5.1.8-6.4-1-.7-3.8-1.3-6.2-1.3-3.5 0-4.8-.5-6.4-2.5-1.1-1.4-3.4-3.2-5.2-3.9-4.1-1.7-8.6-5.9-8.6-7.9 0-.8 1.4-2.6 3.1-3.9 1.7-1.3 6.1-5.2 9.8-8.8 3.6-3.6 9.1-7.8 12.1-9.5 5.9-3.1 16-5 16-3 0 .7.9 2 2 3 1.5 1.4 2.7 1.6 5.7 1 2.1-.5 5.7-.8 8-.7 3.3.1 4.5-.3 5.4-1.9 1.4-2.7-.8-6.1-5-7.9-4.3-1.7-3.9-2.6 1.7-3.4 3-.4 7.4-2.3 12.2-5.1 8.2-5 9.9-5.4 12.4-2.6zM727.1 8c-7.1 1.7-7.9 5.9-1.5 8.6 4 1.7 7.6 1.4 17-1.5 9.5-3 8.5-5.5-2.6-6.6-3.6-.4-7.2-.8-8-1-.8-.1-3 .1-4.9.5zM705.8 9.7c-2.3.6-3.4 4.9-1.8 6.8 1.6 1.9 6.3 1.9 10 0 6.9-3.6.3-9-8.2-6.8zM826.8 10.1c-1.1.6-1.8 2.2-1.8 3.9 0 4.1 3.2 6 10.1 6 3.8 0 6.1.5 6.9 1.5 1.6 2 6.4 1.9 8.4-.1 3.5-3.4.4-8.7-4.5-7.7-2 .4-4.1-.2-7.3-2.1-4.6-2.7-8.9-3.3-11.8-1.5zM631.5 12.6c-.6.2-4.4.7-8.5 1.2-8.6.8-9 1.4-6.9 9 1.6 5.8 7.7 12.2 11.7 12.2 3.9 0 5.8-1.7 8.1-7.3 1.1-2.6 2.5-4.7 3.2-4.7.6 0 2.7 1.4 4.6 3.1 1.9 1.6 4 2.8 4.6 2.6 1.7-.5 2.1-4.5.6-6.3-1.3-1.6-1.4-1.6 2.4-3.2 3.1-1.3 3.8-5.6 1.1-6.6-1.7-.7-19.3-.7-20.9 0z"/><path d="M303.3 14.5c-1.5 1.1-2.3 2.6-2.3 4.5 0 1.8.8 3.5 2.3 4.5 2.1 1.6 2.1 1.6-2.3 1.2-2.5-.3-5.7-.8-7.1-1.2-2.3-.6-2.7-.3-3.2 2.2-.6 3.3 1.3 6 6 7.9 5.3 2.3 9.8 1.8 12.2-1.2 2.7-3.4 2.7-5.3-.1-6.3-1.8-.7-1.5-.9 2-1.4 4.9-.6 9.2-3.1 9.2-5.2 0-1.5-6.4-4.8-11.5-5.9-2-.4-3.8-.1-5.2.9zM277 15.9c-2 .4-4.1 1.1-4.8 1.5-2 1.2-1.4 5.4 1 7 2.1 1.5 2.1 1.7.6 3.2-1.5 1.5-2 1.4-6.4-1.7-6.6-4.5-11.7-6.2-14.8-4.8-2.8 1.3-4.9 4.9-4.4 7.4.9 4.9 12.9 8.3 24.8 6.9 3.6-.4 7.6-.7 9-.8 3.5-.1 5.5-4.3 3.5-7.3-1.3-2-1.2-2.3 2-4.2 2.1-1.2 3.5-2.8 3.5-4 0-3.7-5.3-4.9-14-3.2zM861.5 20.9c-5.2.5-6.2.9-7.2 3.2-1.1 2.3-2 2.7-8.2 3.2-3.8.3-9.8 1.7-13.3 3-3.4 1.4-7.6 2.9-9.3 3.5-3 .9-3.6 2.7-2 6.4.7 1.7.4 1.7-4.1.3-5.2-1.6-11.4-2-11.4-.8 0 .5-.4 1.4-.9 2.2-.8 1.2-1.5.9-4.2-1.3-2.7-2.3-4-2.7-7.2-2.3-2.1.3-5 1.6-6.4 2.9-2.2 2-2.4 2.9-2 6.8l.6 4.6-6.7-.4c-3.7-.2-9.2-1-12.3-1.8-3.1-.8-6.7-1.4-7.8-1.4-2.7 0-3.8 2.6-2.2 5.2.7 1.1 1.1 2.1.9 2.3-.7.6-11.8-1.9-11.8-2.7 0-.5 1.1-1.3 2.5-1.8s2.5-1.6 2.5-2.5c0-.9-.9-1.5-2.5-1.5-2 0-2.5-.5-2.5-2.6 0-3.9 4.8-8 11.6-9.9 13.9-3.8 20.4-7.5 19.1-10.8-.8-2.2-3.8-2.2-16.6.3-11 2.1-14.5 3.7-15.6 6.9-.3 1.1-2.8 3.2-5.5 4.7-5.9 3.2-7.8 6.9-5.8 11.1.8 1.7 2.6 3.2 4.5 3.8 4.5 1.5 4.9 2.3 2 3.6-2 .9-3.2.8-5.8-.5-1.7-.9-3.9-1.6-4.9-1.6-2.2 0-4 1.9-3.3 3.6.4 1-.5.9-3.7-.3-4-1.6-4.2-1.6-6.3.6-2.1 2.1-2.1 2.3-.5 5.1 1.7 3 1.7 3-.7 3-2 0-2.5-.5-2.5-2.4 0-3.1-5.8-8.2-10.7-9.5-2.1-.6-6.9-1.3-10.8-1.6-3.8-.4-11.6-1.5-17.3-2.6-5.7-1-12.5-1.9-15.1-1.9-5.7 0-27.8 5.4-33.9 8.2-5.3 2.6-6 3.7-3.5 5.8 2 1.6 2 1.7-1.7 4.8-2.1 1.7-4.1 4.5-4.5 6.1-1 4.4-4.4 6.9-11.8 8.5-7.3 1.5-9.9 3.1-11.7 7.5-3 7.4.8 14 8.2 14.4l3.5.2-1.8 3.5c-2.1 3.9-2.4 6.9-1 11.8 1 3.2.9 3.4-3.2 5.1-2.4 1.1-5.9 3.8-8.1 6.5-2.1 2.6-5.6 5.6-7.8 6.7-2.2 1.1-5.1 3.2-6.4 4.6l-2.3 2.5-2.7-2.1c-2.9-2.3-2.7-2.4 4.4-4 5.4-1.1 9.2-3.6 9.2-6 0-2.6-3.4-6.6-7-8.1-2-.8-3.2-2.2-3.5-3.9-1.1-5.5-3.8-13.8-5.7-17.5-1.8-3.5-2.2-3.8-5.1-3.2-4.8 1-6.7 3.3-6.7 8.3 0 4.1-.1 4.3-2.9 4.3-3.2 0-9.1 4.3-9.1 6.6 0 .8-1 1.4-2.3 1.4-1.3 0-3.2.9-4.3 2.1-1.5 1.7-1.6 2.3-.6 4 .9 1.4 1 2.5.2 4-.6 1.1-1 3.2-.8 4.7.4 3.6 6.3 5 9.3 2.2 1.1-1.1 3.7-2.6 5.7-3.5 5.2-2.1 6.9-5.2 6.9-12.2l.1-5.8 2.4 2.8c3.2 3.7 3 5.2-1.1 9.8-3.9 4.3-7.7 11.7-6.8 13.1.6 1.1 9.5.6 12.8-.7 1.6-.7 1.8-.6.8.6-.7.7-1.3 2.3-1.3 3.5 0 1.7-.8 2.3-4 2.8-7.5 1.2-6.1 8.4 2.3 11.2 3 1 3.2 1.3 3.5 6.7.2 3.2-.1 5.7-.5 5.7s-4.6-.7-9.3-1.5c-9.4-1.7-13.9-1.9-15.7-.7-1.7 1.1-6.7 32-5.6 34.8.8 2.1 7 1.7 12.9-.7l5.2-2.2 3 2.2c1.7 1.1 4 2.1 5.2 2.1 5.5 0 13.5-7.5 17.4-16.2 2.2-5.2 3-6 8.1-8.4 3.1-1.5 6-3.5 6.6-4.5.7-1.4 2.1-1.9 5.4-1.9 3.8 0 4.8-.4 7.2-3.5 4.4-5.4 5.5-5 11.6 4.5 1.3 1.9 5 5.3 8.2 7.6 3.5 2.3 6.1 4.9 6.3 6.1.2 1.1-.8 3.7-2.2 5.8-3.7 5.4-3.5 7.5.8 7.5 4.7 0 8.6-4.6 8.6-10.1 0-5.2 2.1-5.1 4.4.1 2.7 6.2 13.9 12.7 22.4 13.1 2.3.1 2.2.3-.8.8-2.6.4-3.6 1.2-3.8 2.7-.4 2.8 5.8 5.4 12.7 5.4 5.9 0 8.7-2.3 5.6-4.6-1-.8-2.4-1.4-3.1-1.4-2.3 0-6.4-6.4-5.7-8.8.5-2.2.7-2.1 2.7 1.2 4.4 7.2 10.4 9.7 17.5 7.1 5.8-2 9-1.9 12.6.5 1.7 1.1 4 2 5.3 2 2.6 0 2.6.1.6 9.3-2.1 9.9-2.2 10.1-3.7 9-2.5-2.1-6.1-2.1-13.5-.2-10.8 2.7-12.7 2.5-20.6-2.6-8.3-5.4-13.8-6.1-17.4-2.2-1.2 1.3-2.2 3-2.2 3.9 0 .9-.6 2.1-1.4 2.7-1.6 1.4-2.3 1.1-11.6-4.5-3.9-2.3-7.7-3.6-13-4.4-10-1.5-11.4-2.8-10.6-10.2.5-5.1.3-6-1.8-8.5-2.4-2.7-2.7-2.8-13.3-2.8-10.1 0-11.6.3-23.3 4.3-17.7 6.1-21.5 6-23.4-.2-.5-1.5-.9-1.6-2.2-.5-.9.7-2.4 1.8-3.3 2.4-13.3 7.9-14.9 10-18.4 23.1-3.3 12.3-4.5 14.2-13.9 22.6-12.4 11-15.9 14.8-17.9 19.2-2.3 5-2.4 12.9-.3 21.6.8 3.6 2.6 13.5 3.9 22 2.6 17 5.4 27.3 9.1 33.6 3.8 6.6 12.3 13.8 18.9 15.9 5.6 1.7 5.9 1.7 13.4-.3 4.2-1.1 11.4-3.3 16.1-4.7 21.5-6.7 41.7 1 46.8 17.7 1.1 3.5 3.2 12.4 4.6 19.7 2.8 14 5 19.3 11.2 27.1 3.4 4.1 3.6 4.9 3.1 9.5-.3 2.7-1.5 7.7-2.7 11-7 19.2-7.2 19.8-6.7 26.3.5 6.6 3.8 14.3 14.3 33 3.9 7 4.9 9.9 6.5 19.4 2.8 16.4 3.6 18.8 8 23.2l4 3.9 14.9-.6c18.1-.7 22.3-2.2 31.3-11.3 6.8-6.8 9.2-10.9 11.1-19.2 1.7-7.6 3-9.8 6.6-11.7 4.6-2.4 5.5-4.9 5.5-16.5.1-12.6 1-14.8 11-26 9-10 12.2-15.2 13.5-21.6 1-4.8.8-6.6-1.5-16.1-4.6-18.2-4.1-20.1 9.6-43.1 13.1-21.8 17.5-27.8 29.4-40.2 12.2-12.7 14-16 11-20.6-2.7-4.2-5.8-4.7-14.1-2.4-4.1 1.1-8.4 2-9.7 2-1.8-.1-1.6-.4 1.3-1.8 21-10.7 22.5-11.6 34.5-23 16.7-15.8 18.4-20.4 10.5-28.7-4.2-4.3-7.1-11.6-3.4-8.3 6.8 6 17.8 7.3 27.4 3.3 3.2-1.4 6.6-2.2 7.5-1.9.9.4 3.2 4 5.2 8 3.8 8.1 5.7 9.7 10.8 9.3 1.8-.2 3.9.2 4.6.8.8.6 2.3 1.2 3.4 1.5 1.7.3 2.1 1.3 2.5 7.4.6 7.9 2 10.7 7.9 15.5 5 3.9 5.2 4.5 5.7 14.9.8 17 4.9 23.8 13.7 22.8l4.2-.5-.3 4.3c-1 11.2 13.2 11.5 15.3.3.9-4.8-1.4-9.1-5.9-11.3l-3.5-1.6 1.7-4.5c1.4-3.8 1.4-5.3.4-10.3-2.1-10-1.9-10.7 4.3-14.8 6.2-4.1 13.5-12.6 17.1-19.6 1.3-2.6 2.8-4.9 3.4-5.3.6-.4 3 .1 5.5 1 3.5 1.4 5 1.5 7.6.6 1.8-.6 3.5-1.1 3.9-1.1 1.2 0 3 7.6 3 12.9 0 6.7 2.1 11.6 5.7 13.5 2.6 1.3 3.4 1.3 7.7-.1 6.9-2.3 8-1.3 8.6 7.8.6 8.3 1.4 10.2 7.6 17.6 4.2 4.9 4.4 5.4 4.4 11.5 0 4.2 1 9 2.8 14.5 1.6 4.6 2.4 8.3 1.9 8.3-.6 0-3.2-1.4-5.8-3.1-3.6-2.3-5.1-4-6.2-7.2-.7-2.2-2.5-5-4-6-2.2-1.7-2.8-1.8-4.3-.7-3.1 2.7-1.1 7.7 6.1 15 5.3 5.3 6.7 7.4 7.1 10.6 1 7.6 1.5 8.4 6.8 12.3 4.7 3.5 5.7 4.8 7.5 10.4 2.7 8 4.5 10.6 8.7 12.3 4.4 1.8 5 1.8 7.4-.6 1.5-1.5 2-3.3 2-7.6v-5.5l4.8.3c4.4.3 4.7.1 5-2.3.5-4.2-2.6-6.8-9.3-8-3.3-.6-6.6-1.5-7.2-2.1-1.8-1.5-1.6-8.3.2-9.8 2-1.7 1.9-4.3-.4-8.8-1-2-2.4-5.7-3.1-8.2-.8-3.3-2.5-5.8-6-9.1-3.9-3.7-5.2-5.8-6.9-11.3-2.7-8.7-2.8-14.9-.4-14.4 1 .2 2.7 1.8 3.8 3.5 1.1 1.8 3.3 3.7 4.8 4.4 3.8 1.6 5.9 5.1 5.5 9.1-.3 2.8 0 3.3 2 3.6 1.8.3 3.6-.9 7-4.6 2.6-2.7 6.2-5.5 8-6.2 4.6-1.8 6.2-4.6 6.2-10.6 0-6.1-4-14.9-9.9-21.5-2.1-2.4-5-6.2-6.5-8.3-4-5.9-3.2-11.6 1.7-11.6 1.8 0 1.8.1-.2 3.4-1.2 1.8-2.1 4-2.1 4.8 0 2.9 3.9 5.2 8.7 5.2 4 .1 4.9-.3 6-2.4.7-1.4 1.3-4.6 1.3-7.1v-4.7l7.3-.7c9.3-.9 13.4-3.3 20.9-12 8.8-10.3 11.2-15.5 11.2-23.6-.2-8.9-2.7-15.8-8.5-23.5-6.2-8.2-9.9-13.7-9.9-14.6 0-.3 1-.8 2.2-1 3.3-.4 3.4-3.4.3-5.1-2.3-1.2-2.5-1.5-1.1-2.6 2.4-2 5.9-.9 7.5 2.4.7 1.6 2.2 3.9 3.1 5 1 1.1 2.9 4.3 4.4 7.2 6.2 12.4 15.3 12.3 19.3-.3l1.7-5.6-2.6-1.9c-1.5-1.1-4.1-4.2-5.8-7-1.6-2.7-3.7-5.2-4.5-5.5-.8-.4-1.5-1.7-1.5-3 0-2.9 3.2-4.4 9.5-4.4 8 0 10.3-4.3 10.5-20 .1-4.1.5-9.7.8-12.5l.7-4.9 4.9 9.7c4.1 8.1 5.2 9.7 7.2 9.7 3.8 0 4.9-3.4 2.6-7.8-1.4-2.8-1.7-4.2-.9-5.9.7-1.7.5-3-1.1-5.6-3.5-6-14.4-18.9-17.6-20.8-3.8-2.3-8.4-2.5-9.3-.4-.5 1.4-.7 1.3-1.9-.3-2.1-3.1-6.9-4.5-12.5-3.9-4.9.6-5 .6-7.9-3.5-6.1-8.4-2.7-12.6 9.2-11.4 20.1 1.9 19.8 1.9 21.6.3 1-.9 4.5-1.9 7.7-2.3 3.3-.4 6.6-1.1 7.3-1.7 1.6-1.3 1.5-4.6-.3-8.1-2-3.7-1.5-4.1 1.8-1.5 1.8 1.3 3.8 1.9 5.9 1.7 2.6-.2 3.3-.9 4.3-3.8l1.2-3.4 1.8 2.7c1.9 3 3.3 9.1 2.7 11.9-.2 1-1.5 2.1-2.8 2.4-4.4 1.1-5.8 7.3-2.8 11.9.9 1.4 4.2 4 7.3 5.9 7.2 4.4 9.3 6.8 12.1 13.9 3 7.2 5.6 10.3 7.5 8.7 2-1.7 2.8-10.7 1.8-19.1-.8-5.8-.7-7.6.4-8.7.7-.7 1.3-2.2 1.3-3.3 0-2.7-3.3-9-6-11.4-1.2-1.1-2.6-2.8-3.2-3.9-.9-1.7-.7-1.8 2.4-1.2 2.3.4 4.1.1 5.3-.8 1.1-.8 3.1-1.2 4.5-.9 1.8.3 4.2-.7 8.5-3.6 3.3-2.3 6.5-4.1 7.1-4.1 2.5 0 2.1-2.9-1.2-8-4.6-7.4-4.5-8.4 1-7.6 2.5.4 6.8 1.5 9.7 2.6 2.9 1 5.9 1.6 6.6 1.3 2.3-.9 1.4-4.1-2-6.7-5.7-4.4-11.9-6.5-34.4-11.8-20.7-4.8-22.7-5.1-38.6-5.5-10.6-.3-18.8 0-22.4.7-8 1.7-14.9 1.4-21.8-1-3.3-1.1-9.6-2.5-14-2.9-5.3-.6-10.5-2-15.5-4.1-7.1-3.1-7.9-3.2-16-2.7-4.7.4-9.8 1-11.5 1.3-2.6.6-2.8.5-1.7-.8 1.8-2.2-.1-3.4-6.5-4.3-3.9-.5-5-1-4.6-2.1.8-2.3-2.3-6.1-6.1-7.4-3-1-4.2-.8-8.1.9-4.1 1.8-4.6 2.4-4.3 4.8.2 2 1.3 3.3 3.7 4.5 2.8 1.4 3.1 1.9 1.8 2.4-2 .7-2.2 3.7-.4 5.2.7.7 3.7 1.6 6.5 2.3 2.9.6 5.2 1.3 5.2 1.6 0 1.3-8.7-.9-11.4-2.8-2.2-1.7-3.7-2-7-1.6-3.4.5-5.4 0-11.5-3-8.8-4.3-14.2-5-26.5-3.4-7.4 1-9.6.9-15.1-.4-3.7-1-9.1-1.5-12.6-1.3l-6 .3 3.2-2.6c2.8-2.2 3-2.8 2-4.7-3.5-6.6-22.9-9.6-46.6-7.3zM806 56.5c4.7 2.4 5.5 9.7 1.2 10.3-3.7.5-5.2-1.5-5.2-6.9 0-2.7.2-4.9.5-4.9.4 0 1.9.7 3.5 1.5zm-77.1 6.1c-1.7 2.1-3.1 1.7-1.7-.5.7-1.1 1.6-1.7 2-1.4.5.2.4 1.1-.3 1.9zm-32.3 9c-.3.9-.6 2.1-.6 2.7-.1 1.3-3-2.2-3-3.5 0-.4.9-.8 2.1-.8 1.5 0 1.9.4 1.5 1.6zm-42.6.1c0 .3-1.6 3.5-3.6 7l-3.6 6.4 2.6 5.3c3.1 6.4 3.1 6.2.5 11-1.4 2.7-2 5.3-1.8 9l.3 5.1-4.9.6c-2.8.4-7.3.9-10.1 1.1l-5.1.5 4.2-4.1c6.2-6 8.9-13.9 8-23.3l-.7-7.2 4-2.5c2.1-1.3 4.9-4.1 6-6 1.9-3.2 4.2-4.8 4.2-2.9zm17.8 22c.4 1.4-2.7 1.7-6.6.6-1.8-.4-2-.8-1-1.4 1.8-1.3 7.1-.7 7.6.8zm-55 11.3c-.6 5.7-1 6.5-3.4 5.6-1.3-.5-1.5-1.4-.9-4.2.4-2.2.2-4.1-.6-5-.9-1.2-.6-1.4 2.1-1.4h3.3l-.5 5zm3.2 11.5c0 .6-5.6 3.5-6.7 3.5-1.3-.1 4.1-4 5.5-4 .6 0 1.2.2 1.2.5zm6 48.6c1.9 1.7 4.9 3.9 6.5 5 3.4 2.1 1.9 2.4-3.9.8-4-1.1-8.6-5.2-8.6-7.5s2.3-1.6 6 1.7zm72 .4c3.7 3.8 8.7 4.7 11 2 1.7-2 2.3-1.9 10.7 1.1 6.4 2.3 7.4 3 8.3 6 .6 1.8.9 3.8.5 4.4-1.1 1.8-10.8 1-18-1.5-9.1-3.2-12-3.1-19.1.5-8.4 4.3-13.3 3.9-8.3-.6 2.8-2.5 4.9-6.7 4.9-9.8 0-6.7 4.6-7.7 10-2.1zm-26.5 19.7c-.4 1.1-.7 3.9-.7 6.2l.1 4.1-4.1-4.3c-2.2-2.4-3.6-4.7-3.2-5.2.5-.5 2.5-1.3 4.4-1.8 1.9-.6 3.6-1.1 3.8-1.1.2-.1 0 .9-.3 2.1zm372.2 5.8c1 2.6.9 3-.5 2.9-3.7-.1-5-1.3-4.1-3.7 1.2-3.1 3.3-2.8 4.6.8zm-261.5 52.9c6.5 6.9 6.6 7 12.4 7.3l5.8.3-5.5 3.7c-6.2 4.3-8.9 4.8-8.9 1.7 0-2.6-5.2-7.9-7.8-7.9-2.1 0-5.2-6.1-5.2-10 0-3.5 2.4-2.2 9.2 4.9zm-62.6 12.6c3.6 5.5 8.6 14.2 11.1 19.2 2.4 5.1 6.7 12.1 9.4 15.5 5.1 6.3 9.4 13.6 8.6 14.4-.3.3-1.9-2-3.6-5-1.7-3.1-6.3-9-10.1-13.3-3.9-4.2-8.9-11.1-11.2-15.3-2.3-4.1-6.5-10.7-9.5-14.6-2.9-3.9-5.3-7.4-5.3-7.9 0-.7 3.3-3.6 3.7-3.2.1.1 3.2 4.7 6.9 10.2zM500.4 68.3c-1.7 1-1.8 4.7-.1 7 .6.9 3.3 2.1 5.8 2.5 4.7.9 20 0 23.1-1.3 2-.8 4.2-6.5 3-7.7-1.1-1.1-29.9-1.6-31.8-.5z"/><path d="M1114 168.3c-3.7 1.8-3.8 5.9-.3 10.5 1.6 2 3.4 5.5 4.1 7.7 1.1 3.6 1 4.1-1.3 6.5-3 3.2-4.5 7.1-4.5 12s-2.3 7.2-9.4 9.4c-2.9 1-6.3 2.6-7.4 3.6-5.5 5.2-2.3 16.9 4 14.5.8-.3 3.1-2.6 5.2-5.1 3.7-4.4 9.5-8 16.8-10.3 6.3-2.1 7.8-5 7.8-15 0-8.7-1.9-15.1-5.6-19.2-1.4-1.6-1.4-2 .1-4.2 1.1-1.7 2.2-2.3 3.5-2 2.7.7 2.7-3 0-5.7-3.9-3.9-8.7-4.9-13-2.7zM603.9 179.6c-2.1 4-1.6 10.4 1.1 12.6 6.3 5.1 11.4-2.9 5.6-8.7-1.6-1.6-2.2-3.1-1.9-4.5.8-3.1-3-2.6-4.8.6zM217.2 267.6c-2.7 1.9-2.9 5-.3 6.4 1.1.5 4.6 1 7.8 1.1 9.5.1 15.2 1.3 16.9 3.8 2 2.8 5.9 4.7 11.2 5.5 3.9.5 4.4.3 5.2-1.9 1.1-2.9.4-5.5-1.6-5.5-.7 0-2.8-.9-4.6-2-1.8-1.1-4.3-2-5.4-2-1.2 0-2.9-1.1-3.7-2.4-2.8-4.3-20.7-6.4-25.5-3zM263 281.7c-5.7 1.1-7.8 6.5-4 10.3 2.4 2.4 5.6 2.5 13.3.5 3.2-.8 7.1-1.5 8.7-1.5 2 0 3.1-.6 3.5-2 .8-2.5-.1-4-2.4-4-.9 0-2.1-.4-2.6-.9-.9-.8-12-3.3-13.4-3-.3.1-1.7.4-3.1.6zM1070.6 290.1c-3.8 4.4-3.4 8.1 1.3 14.1 4.1 5.1 6 11.5 4.6 15.7-.4 1.5-.1 2.3 1.1 2.8 2.2.8 5.4-3 5.4-6.3 0-3.1.8-3 4.8.6 4.7 4.3 4.3 6.1-1.2 5.4-3.8-.6-4.5-.3-6 1.7-2.2 3.2-2 7.5.5 10 1.7 1.7 3 2 6.7 1.7 2.6-.3 5.5-.8 6.5-1.2 1-.5 1.7-.4 1.7.2 0 .6-2.7 1.8-6 2.8-3.2.9-6.6 2.4-7.4 3.3-2 2.2-2.8 6.3-1.7 8.1 1 1.5 1.4 1.4 8.4-1.5 1.3-.6 2 0 2.8 2.4.7 2 2 3.3 3.5 3.7 2.6.7 5.4-1 5.4-3.1 0-.7.9-1.5 2-1.8 1.1-.3 2.5-1.7 3.2-3.2 1-2.2.9-3.2-.8-6.3-1-2-2.6-4.4-3.5-5.3-1-1-1.8-4-2.1-7.4-.4-4.4-1-6.3-2.7-7.6-1.8-1.4-2-2.2-1.2-3.7 1.7-3.2-1.1-5.9-7.7-7.2-11-2.3-11.9-3.2-7.7-8.1 1.5-1.9 2.2-3.6 1.8-4.7-.7-2-7-8.2-8.3-8.2-.4 0-2 1.4-3.4 3.1zM240 290c-2.5 2.5-2.5 3.1.1 6.4 2.4 3 7.8 3.6 10.3 1 1.9-1.8 2.1-6.5.4-8.2-2-2-8.5-1.5-10.8.8zM289.8 290.1c-2 .8-2.8 1.8-2.8 3.4 0 4.8 7.8 6.2 10.7 1.9 3-4.7-1.4-7.7-7.9-5.3zM302.3 295.6c-.8 2 1.7 3.6 3.4 2.2 1-.8 1-1.4.2-2.4-1.5-1.8-2.8-1.8-3.6.2zM310 302.3c0 .7.5 1.8 1.2 2.5 1.5 1.5 3.9-.3 3.1-2.4-.7-1.8-4.3-1.9-4.3-.1zM1067.2 322.9c-.9.5-1.1 1.7-.6 3.5.5 2-.1 3.7-2 6.7-5.1 7.6-1.1 10.6 5.4 4.1 3.9-3.9 5.2-8.1 3.2-10.7-1.8-2.6-4.8-4.3-6-3.6zM1058.2 346.2c-.7.7-1.2 1.7-1.2 2.2 0 .6-1.3 4.2-2.8 8.1l-2.9 7-6.7 2.7c-12.2 5-17.5 10.9-16.3 18.5.9 5.2 4.1 8.1 9.6 8.8 2.5.3 7.4 1.7 10.9 3 12.3 4.9 16.4 2.9 16.1-7.7-.2-5.4.2-7 2.1-9.6 2-2.7 2.2-3.8 1.6-8.9-.8-7.1.7-12.1 4-13.3 3.4-1.3 3-3.4-1.3-6.8-6.8-5.3-10.6-6.5-13.1-4zM1091.2 368.3c-1.2.7-2.9 2.3-3.8 3.5-1.3 1.9-2.2 2.2-4.6 1.7-2.3-.5-3.5-.2-5.3 1.5-2.9 2.8-4.9 10.8-4.1 16.3.4 2.3.2 6.2-.5 8.9-2.1 7.9 1.3 11.9 7.2 8.8 1-.6 1.9-2 1.9-3 0-2.6.8-2.5 3.2.5 2.5 3.2 6.3 3.3 8.4 0 1.9-2.9 1.2-5.6-2.8-10.7l-3-3.8 2.1-2.6c2.5-3.1 2.7-6.9.5-7.8-.8-.3-3.1.1-5 .9-4.4 1.8-4.4.5 0-1.9 2.6-1.4 3.8-1.6 5.4-.7 3.4 1.8 7.1 1.3 9.7-1.4 3.2-3.2 3.1-5-.4-8.6-3.2-3.1-5.3-3.5-8.9-1.6zM1108.1 369.4c-1.8 2.1-1.6 10.6.3 14.1 2.1 3.9 2 5.2-.4 8.2-1.1 1.4-2 3.6-2 4.9 0 2 .5 2.4 3.1 2.4 1.7 0 4-.5 5.2-1.2 1.2-.6 3.6-1.4 5.2-1.8 4.3-.9 4-4-.7-6.5-4.3-2.3-5.7-6.1-3.9-10.8 1.4-3.7 1.4-8-.1-9.5-1.6-1.6-5.3-1.5-6.7.2z"/><path d="M1128.5 378.7c-2.3.6-5.3 3-6.6 5.5-1.4 2.5.6 5.7 4.3 7 2.1.8 3.5 2.3 4.8 5.4 2.2 5.1 5 6.8 10.1 6.1 3.5-.5 4.2-.1 7.9 3.9 2.2 2.4 4 4.8 4 5.3s-1.2 2.3-2.6 4c-2.9 3.4-2.6 4.4 1.8 6.7 3.2 1.7 6.8 1.3 9.1-1.1 1.3-1.2 1.9-1.2 5.1.4 4.7 2.4 6.9 1.8 10.7-3 4.4-5.5 6.2-5.1 10.1 2.3 1.8 3.5 4.5 6.9 5.9 7.7 2.4 1.3 3.1 1.3 6.8-.4 2.3-1 4.1-2.3 4.1-3 0-.6-1.8-2.6-3.9-4.3-2.4-1.9-5.7-6.4-8.5-11.6-4.9-9-7.2-11.1-16-15.2-3.1-1.4-6.8-3.8-8.4-5.3-2.7-2.8-2.8-2.8-11.6-2.1-7 .5-9.2 1.1-10.3 2.5-.7 1.1-1.3 2.2-1.3 2.7 0 .4-.6.8-1.2.8-.7 0-2.3-2.2-3.5-4.8-4.7-9.9-5.6-10.7-10.8-9.5zM1203.1 388.6c-2 1.4-2.2 2.3-1.9 6.9.3 4.8.1 5.4-2.9 7.9-4 3.4-4.3 6.7-.7 9.5 3.3 2.6 5.8 2.6 9.9.1 3.5-2.1 12-12.3 12-14.3 0-.7-2-1.4-5-1.7-4.9-.5-5-.6-5.3-4-.3-3.3-1.7-6-3.1-6-.4 0-1.7.7-3 1.6zM1227.7 408.7c-1.4 1.3-.7 5.1 1.4 7.7 2.3 3 7.9 3.7 7.9 1.1 0-2.2-3-6.5-4.5-6.5-.7 0-1.5-.7-1.9-1.5-.6-1.6-1.8-1.9-2.9-.8zM1240.2 416.2c-2.7 2.7-.4 9.8 3.2 9.8 1.7 0 3.3-3.8 3.2-7.5-.1-2.4-.6-3.1-2.6-3.3-1.4-.2-3.1.3-3.8 1zM1163.3 432.7c-1.3 3.6-1.8 7.5-1.8 15.5 0 9.7-.2 10.7-1.9 11.2-1.1.3-3-.4-4.4-1.5-1.4-1-3.7-1.9-5.3-1.9-1.8 0-3.5-.9-4.7-2.5-1.8-2.3-1.9-2.8-.6-5.3 2.1-4.1 1.8-10.5-.7-12.8-1.7-1.6-3.9-1.9-12.3-2.2-7.6-.2-10.6.1-11.9 1.2-1 .8-3.5 4.7-5.6 8.8-2 4-4.3 7.3-5.1 7.3-.8 0-1.8-1.6-2.2-3.5-1.1-4.1-4.2-7.1-6.6-6.3-3.5 1.2-5.6 4-9.5 12.3-5.5 11.9-7.2 13.4-19.1 17.2-10.8 3.5-15 6.6-20.8 15.6-1.5 2.3-4.5 5-6.7 6.1-2.2 1.1-5 3.5-6.3 5.3-2.2 3.1-2.3 4.4-2.9 23.3-.3 11.4-1.1 21.7-1.8 23.8-1.7 5.1-.8 6.1 5.1 5.4 4.7-.6 7.4-1.9 20.8-10.3 3-1.9 10.3-5 16.3-7 9.6-3.1 11.1-3.3 12.6-2.1.9.8 4.3 2.2 7.5 3.2 7.7 2.2 9.9 3.7 13.6 9.4 3.9 6.1 6.1 8.2 9.3 8.4 1.7.1 3.4 1.4 4.9 3.7 4.3 6.6 19.5 11.5 33.3 10.8 8.9-.4 12-2.5 16.5-11 2.2-4.1 7.1-10.1 14.2-17.4 12-12.5 14.8-17.2 15.6-27 .5-6.7.2-7.4-6.1-17.7-6-9.8-12.4-25.9-15.6-38.9-3.8-15.9-4.5-17.6-8.9-22.1-4.9-5-6.6-4.8-8.9 1zM772.7 439.3c-3.4 7.4-8.3 12.1-15.3 14.4-8.4 2.8-9.8 5.2-9.7 16.1.1 4.8.9 12.3 1.7 16.7.9 4.4 1.9 11.5 2.2 15.7.8 9.1 1.9 10.6 6.2 8.4 3.9-2 8-7 10.8-13.1 2.5-5.5 6.7-22.6 8.4-34.5.6-4.1 1.8-10.9 2.5-15 1.7-8.7 1-13.3-2.2-13.8-1.7-.3-2.6.8-4.6 5.1zM1265 446.5c-1.8 2.2.5 8 4.6 11.3 1.9 1.5 3.4 3.5 3.4 4.4 0 3 2.2 3.2 4.7.4 3.7-4.4 2.9-7.9-3.8-14.9-2.9-3-6.9-3.6-8.9-1.2zM1266.7 473.7c-1.2 1.1-.7 4.1.7 4.6 1.9.7 2.6-.1 2.6-3 0-2.2-1.9-3.1-3.3-1.6zM1260 543.2c-1.5 2.5-2 5.1-2 10.3 0 9.1-2 13.1-8 16.2-2.5 1.2-5.7 3.4-7.2 4.9-1.4 1.5-5.5 4.5-9.1 6.8-10.9 6.9-25.5 18.4-26.2 20.7-1 2.9 1.1 4.1 5.8 3.4 5.3-.8 8-2.6 16.7-11.4 4.8-4.9 9.5-8.5 13-10.2 10.9-5.1 28.6-14.3 31.3-16.1 3.9-2.7 6.2-7.5 4.6-9.4-.7-.8-1.8-1.3-2.6-1-.8.3-1.3-.2-1.3-1.4 0-1-1.7-5.1-3.7-9-3.2-6.2-4-7-6.5-7-2.1 0-3.3.8-4.8 3.2zM1141 568.5c-1.4 1.7-.5 3.5 1.6 3.5.8 0 1.2.5.9 1-.4.7-2.4.8-5 .4-3.9-.5-4.5-.4-6.1 2-2 3.1-2.3 12.1-.5 15.4 2.6 4.9 9.8 1 16-8.7 3.4-5.3 3.9-9.5 1.5-12.9-1.8-2.6-6.5-3-8.4-.7zM350.5 621.4c-1.3 1.9-1.4 2.9-.5 4.5 2.3 4.5 7.5 5.3 10.8 1.8 4.2-4.4 1.7-8.7-4.8-8.7-3.1 0-4.3.5-5.5 2.4z"/></svg>
